<svg xmlns="http://www.w3.org/2000/svg" xmlns:xlink="http://www.w3.org/1999/xlink" version="1.1" x="0px" y="0px" viewBox="0 0 100 125" enable-background="new 0 0 100 100" xml:space="preserve"><path fill="#000000" d="M85.401,72.361l-0.031-0.312c-0.002-0.021-0.015-0.037-0.018-0.058c-0.003-0.02,0.004-0.039-0.001-0.06  l-0.054-0.24l-0.024-0.198c-0.003-0.021-0.016-0.038-0.02-0.059s0.002-0.039-0.003-0.06l-0.062-0.25  c-0.009-0.036-0.033-0.062-0.046-0.096c-0.013-0.036-0.012-0.074-0.029-0.109l-0.094-0.188l-0.125-0.25l-0.094-0.188  c-0.018-0.035-0.049-0.057-0.069-0.089c-0.022-0.034-0.03-0.073-0.057-0.104l-0.148-0.179l-0.707-0.913l-0.128-0.204  c-0.012-0.02-0.032-0.03-0.046-0.048c-0.014-0.021-0.018-0.044-0.033-0.062l-0.156-0.188c-0.021-0.024-0.049-0.035-0.071-0.057  c-0.021-0.022-0.032-0.051-0.057-0.071l-0.188-0.156l-0.188-0.156c-0.011-0.009-0.024-0.011-0.035-0.019  c-0.01-0.008-0.015-0.02-0.024-0.026l-0.219-0.156c-0.028-0.021-0.062-0.023-0.09-0.04c-0.031-0.019-0.052-0.046-0.085-0.061  l-0.264-0.117l-0.227-0.113c-0.035-0.018-0.072-0.016-0.107-0.029c-0.035-0.013-0.062-0.037-0.098-0.046l-0.375-0.094l-0.375-0.094  c-0.03-0.008-0.059,0-0.088-0.005c-0.031-0.005-0.057-0.021-0.088-0.023l-0.469-0.031c-0.002,0-0.003,0.001-0.005,0.001  c-0.001,0-0.002-0.001-0.003-0.001l-0.503-0.029l-0.612-0.062c-0.01-0.001-0.019,0.004-0.028,0.003s-0.019-0.007-0.028-0.007  l-0.719-0.031c-0.008-0.001-0.015,0.004-0.022,0.003c-0.007,0-0.013-0.004-0.021-0.004h-0.812h-1.25  c-0.005,0-0.01,0.003-0.015,0.003s-0.009-0.003-0.014-0.003l-1.094,0.031c-0.008,0-0.014,0.005-0.021,0.005s-0.013-0.003-0.02-0.003  l-0.878,0.061h-0.772h-0.312h-0.344h-0.201l-0.176-0.039l-0.281-0.062c-0.018-0.004-0.035,0.002-0.054-0.001  s-0.033-0.015-0.053-0.017l-0.076-0.009l-0.038-0.021c-0.024-0.014-0.051-0.014-0.075-0.025c-0.025-0.012-0.043-0.033-0.069-0.043  l-0.25-0.094L71.492,66.8l-0.143-0.107c-0.03-0.022-0.066-0.028-0.099-0.047c-0.034-0.021-0.058-0.051-0.095-0.067l-0.144-0.063  l-0.136-0.119c-0.028-0.024-0.063-0.033-0.094-0.054c-0.029-0.021-0.048-0.05-0.079-0.067l-0.194-0.108l-0.141-0.12l-0.219-0.188  c-0.009-0.008-0.02-0.009-0.028-0.016c-0.009-0.008-0.013-0.019-0.022-0.025l-0.136-0.102l-0.102-0.136  c-0.015-0.02-0.037-0.029-0.053-0.047c-0.017-0.02-0.022-0.043-0.04-0.061l-0.188-0.188l-0.192-0.192l-0.107-0.15  c-0.002-0.003-0.006-0.005-0.009-0.008c-0.002-0.004-0.002-0.008-0.005-0.011l-0.179-0.238l-0.132-0.185l-0.142-0.227  c-0.006-0.01-0.016-0.014-0.021-0.023c-0.006-0.009-0.007-0.019-0.013-0.027l-0.123-0.172l-0.114-0.206l-0.119-0.238  c-0.008-0.016-0.021-0.023-0.03-0.039c-0.008-0.014-0.008-0.03-0.017-0.044l-0.117-0.188l-0.057-0.128l-0.041-0.184  c-0.01-0.042-0.036-0.073-0.05-0.112s-0.014-0.08-0.032-0.118l-0.069-0.139l-0.036-0.162c-0.004-0.019-0.018-0.032-0.022-0.05  c-0.004-0.017,0-0.033-0.006-0.05l-0.094-0.281l-0.075-0.226l-0.044-0.196l-0.022-0.179l-0.03-0.308  c-0.002-0.021-0.015-0.037-0.018-0.057c-0.003-0.021,0.004-0.04-0.001-0.061l-0.051-0.229l-0.02-0.174V60.18v-0.594v-0.23  l0.021-0.202l0.05-0.226c0.004-0.018-0.002-0.034,0.001-0.052c0.003-0.02,0.015-0.035,0.017-0.055l0.027-0.241l0.053-0.267  c0.002-0.012-0.002-0.023,0-0.035c0.002-0.014,0.01-0.023,0.012-0.037l0.02-0.153l0.062-0.186l0.082-0.246l0.094-0.25  c0.002-0.006,0.001-0.013,0.003-0.019s0.007-0.011,0.009-0.017l0.076-0.229l0.108-0.243c0.006-0.014,0.004-0.028,0.01-0.042  c0.006-0.018,0.019-0.03,0.024-0.048l0.064-0.193l0.105-0.189l0,0l0.125-0.219c0.001-0.002,0.001-0.004,0.002-0.005  c0.001-0.003,0.003-0.004,0.004-0.006l0.129-0.232l0.123-0.172c0.008-0.012,0.009-0.025,0.017-0.037  c0.014-0.021,0.031-0.036,0.044-0.059l0.123-0.223l0.146-0.194c0.003-0.004,0.003-0.008,0.006-0.012  c0.002-0.003,0.006-0.004,0.008-0.007l0.133-0.186l0.148-0.173c0-0.001,0.001-0.001,0.002-0.002l0.175-0.199l0.16-0.138  c0.033-0.028,0.05-0.068,0.078-0.101c0.021-0.023,0.052-0.032,0.071-0.059l0.102-0.136l0.136-0.102l0.25-0.188l0.25-0.188  c0.01-0.007,0.014-0.019,0.022-0.025c0.012-0.009,0.025-0.012,0.036-0.021l0.191-0.167l0.16-0.101l0.257-0.143  c0.01-0.006,0.015-0.016,0.024-0.021c0.015-0.008,0.031-0.011,0.045-0.021l0.229-0.152l0.096-0.048l0.068-0.027l0.171-0.049  c0.007-0.002,0.012-0.008,0.02-0.01c0.007-0.003,0.015-0.001,0.022-0.004l0.188-0.062c0.004-0.001,0.007-0.005,0.011-0.006  c0.005-0.002,0.01-0.001,0.015-0.003l0.243-0.089l0.321-0.046l0.286-0.023h0.401H73.9l0.439,0.029l0.415,0.027l0.436,0.082  c0.015,0.003,0.029,0.002,0.044,0.004c0.006,0.001,0.011,0.005,0.017,0.006l0.481,0.061l0.467,0.082l1.021,0.217l1.137,0.276  c0.001,0,0.003,0,0.004,0l0.365,0.092c0.02,0.005,0.04,0.004,0.06,0.008c0.011,0.002,0.02,0.009,0.03,0.011l0.406,0.062h0.001  l0.316,0.058l0.344,0.062c0.06,0.012,0.119,0.017,0.178,0.017h0.001h0.312h0.312h0.001c0.071,0,0.144-0.008,0.216-0.023l0.229-0.051  l0.227-0.025c0.015-0.002,0.026-0.011,0.041-0.013c0.03-0.005,0.061-0.004,0.091-0.012l0.25-0.062  c0.017-0.004,0.029-0.017,0.046-0.021c0.021-0.007,0.042-0.004,0.063-0.012l0.25-0.094c0.022-0.009,0.037-0.026,0.059-0.037  c0.049-0.021,0.099-0.037,0.145-0.067l0.091-0.061l0.144-0.054c0.004-0.002,0.007-0.006,0.012-0.007  c0.058-0.022,0.105-0.066,0.158-0.1c0.061-0.038,0.126-0.067,0.176-0.116c0.003-0.003,0.007-0.004,0.01-0.007l0.119-0.119  l0.158-0.132c0.043-0.036,0.065-0.085,0.101-0.126c0.021-0.024,0.053-0.034,0.072-0.062l0.156-0.219  c0.007-0.01,0.008-0.022,0.015-0.032c0.013-0.02,0.029-0.033,0.04-0.053l0.101-0.177l0.126-0.176  c0.005-0.007,0.005-0.015,0.01-0.021c0.068-0.102,0.122-0.213,0.151-0.339c0-0.001,0.001-0.002,0.001-0.003s0.001-0.001,0.001-0.002  l0.045-0.203l0.095-0.236c0.005-0.013,0.003-0.025,0.007-0.038c0.006-0.017,0.018-0.029,0.022-0.046l0.094-0.312  c0.005-0.018,0.001-0.035,0.005-0.053c0.005-0.02,0.017-0.035,0.021-0.056l0.062-0.344c0-0.002-0.001-0.004,0-0.006  c0-0.003,0.003-0.006,0.003-0.009l0.062-0.375l0.062-0.375c0.003-0.016-0.004-0.03-0.002-0.047c0.002-0.016,0.012-0.029,0.013-0.046  l0.031-0.438l0.031-0.438c0.001-0.012-0.005-0.022-0.005-0.035c0.001-0.013,0.008-0.023,0.008-0.036v-0.407l0.055-0.438  c0.003-0.021-0.006-0.041-0.005-0.062c0.002-0.021,0.013-0.04,0.013-0.062v-0.531c0-0.009-0.005-0.017-0.005-0.025  c-0.001-0.01,0.005-0.019,0.004-0.028l-0.062-1.156v-0.001l-0.062-1.245c0-0.009-0.006-0.016-0.006-0.023  c-0.001-0.009,0.003-0.016,0.002-0.023l-0.09-0.933l-0.062-1.18c-0.001-0.014-0.009-0.025-0.011-0.039  c-0.001-0.014,0.005-0.025,0.003-0.039l-0.154-1.174c0,0,0,0,0-0.001l-0.156-1.312c-0.001-0.01-0.007-0.017-0.009-0.026  c-0.001-0.008,0.002-0.016,0.001-0.023l-0.216-1.262l-0.187-1.277c-0.001-0.006-0.005-0.01-0.005-0.015  c-0.001-0.006,0.001-0.012,0-0.018l-0.219-1.219c-0.001-0.004-0.003-0.006-0.004-0.01s0.001-0.007,0-0.01l-0.218-1.089v-0.001  l-1.031-5.25c-0.003-0.016-0.014-0.027-0.018-0.042c-0.004-0.016,0.001-0.031-0.004-0.047c-0.016-0.053-0.051-0.092-0.073-0.14  c-0.028-0.06-0.052-0.119-0.09-0.171c-0.04-0.054-0.089-0.094-0.138-0.137c-0.047-0.043-0.09-0.087-0.145-0.12  c-0.053-0.032-0.11-0.05-0.169-0.071c-0.062-0.024-0.122-0.05-0.188-0.061c-0.063-0.01-0.126-0.003-0.191-0.001  c-0.053,0.002-0.104-0.011-0.158,0c-0.016,0.003-0.027,0.014-0.042,0.018c-0.016,0.004-0.031-0.001-0.047,0.004l-3.818,1.117  l-0.781,0.181h-0.001l-0.839,0.18l-0.85,0.152l-0.879,0.121c-0.001,0-0.002,0.001-0.004,0.001c-0.002,0.001-0.004,0-0.006,0  l-0.829,0.123l-0.85,0.091l-0.68,0.057h-0.589h-0.765l-0.645-0.059c-0.017-0.001-0.03,0.006-0.046,0.005s-0.029-0.009-0.045-0.009  h-0.224l-0.229-0.025h-0.001l-0.156-0.02l-0.141-0.04l-0.117-0.039l-0.04-0.017L68.18,30.66l-0.105-0.07l-0.055-0.055  c-0.039-0.039-0.088-0.056-0.131-0.087c-0.045-0.032-0.078-0.075-0.129-0.101l-0.043-0.021l-0.199-0.199l-0.299-0.353  c0-0.001,0-0.001,0-0.001l-0.125-0.156c-0.002-0.003-0.006-0.004-0.008-0.007s-0.003-0.006-0.005-0.009l-0.056-0.066l-0.003-0.008  c-0.002-0.004-0.006-0.007-0.008-0.012c-0.001-0.003,0-0.007-0.002-0.011l-0.067-0.156l-0.046-0.162l-0.04-0.139l-0.016-0.145  v-0.255v-0.344v-0.39l0.09-0.985v-0.001l0.125-1.344c0.001-0.007-0.003-0.013-0.002-0.02c0-0.007,0.005-0.013,0.005-0.02l0.094-1.75  v-0.001l0.093-1.425c0-0.003-0.001-0.005-0.001-0.008s0.002-0.005,0.002-0.008l0.031-0.625c0-0.009-0.004-0.017-0.004-0.025  s0.005-0.016,0.005-0.024v-0.531v-0.531c0-0.013-0.007-0.023-0.008-0.036c0-0.013,0.006-0.023,0.005-0.035l-0.031-0.438  c-0.001-0.012-0.008-0.021-0.009-0.033c-0.002-0.013,0.004-0.024,0.002-0.037l-0.059-0.409l-0.028-0.37  c-0.001-0.016-0.011-0.028-0.013-0.044c-0.001-0.015,0.005-0.028,0.002-0.043l-0.062-0.375c-0.003-0.018-0.015-0.03-0.018-0.047  c-0.004-0.018,0.001-0.034-0.004-0.052l-0.079-0.289l-0.054-0.351c-0.006-0.035-0.025-0.062-0.034-0.096  c-0.009-0.031-0.003-0.062-0.015-0.094l-0.113-0.311l-0.12-0.392c-0.005-0.017-0.018-0.027-0.023-0.044  c-0.006-0.016-0.003-0.031-0.01-0.047l-0.15-0.36c0-0.001,0-0.001,0-0.001l-0.188-0.469c-0.002-0.004-0.006-0.007-0.008-0.012  c-0.001-0.003,0-0.007-0.002-0.011l-0.188-0.438c-0.012-0.026-0.034-0.044-0.048-0.069c-0.013-0.025-0.015-0.054-0.03-0.078  l-0.281-0.438c-0.001-0.002-0.004-0.004-0.006-0.006c-0.001-0.002-0.001-0.005-0.003-0.008l-0.25-0.375  c-0.007-0.01-0.018-0.015-0.024-0.024c-0.007-0.009-0.008-0.021-0.015-0.03l-0.312-0.406c-0.004-0.005-0.01-0.007-0.015-0.013  c-0.004-0.006-0.005-0.013-0.01-0.019l-0.312-0.375c-0.011-0.013-0.026-0.018-0.037-0.03c-0.011-0.011-0.014-0.025-0.024-0.036  l-0.324-0.324l-0.333-0.363c-0.016-0.017-0.037-0.023-0.054-0.039s-0.024-0.038-0.043-0.054l-0.375-0.312  c-0.011-0.009-0.024-0.011-0.035-0.019c-0.01-0.008-0.015-0.02-0.024-0.026l-0.438-0.312c-0.015-0.01-0.031-0.011-0.046-0.021  s-0.023-0.025-0.039-0.034l-0.424-0.242l-0.464-0.278l-0.469-0.281c-0.024-0.015-0.051-0.015-0.075-0.027  c-0.025-0.012-0.042-0.033-0.068-0.044l-0.469-0.188c-0.003-0.001-0.007-0.001-0.01-0.002c-0.004-0.001-0.006-0.005-0.01-0.006  l-0.5-0.188c-0.001,0-0.002,0-0.003-0.001l-0.549-0.213c-0.021-0.008-0.043-0.005-0.063-0.012c-0.021-0.006-0.035-0.021-0.057-0.026  l-0.375-0.094c-0.003-0.001-0.005,0-0.008,0c-0.004-0.001-0.006-0.004-0.01-0.005l-0.406-0.094c-0.001,0-0.002,0-0.002,0  l-0.355-0.089c-0.016-0.004-0.03,0.001-0.046-0.002c-0.016-0.004-0.027-0.014-0.044-0.017l-0.406-0.062  c-0.013-0.002-0.023,0.003-0.036,0.002c-0.012-0.002-0.021-0.009-0.033-0.01l-0.375-0.031c-0.001,0-0.001,0-0.002,0  s-0.003-0.001-0.004-0.001l-0.364-0.028l-0.33-0.055c-0.029-0.005-0.056,0.005-0.085,0.002c-0.027-0.002-0.051-0.016-0.079-0.016  h-0.438h-0.375c-0.026,0-0.049,0.013-0.075,0.016c-0.026,0.002-0.051-0.008-0.077-0.004l-0.367,0.057l-0.37,0.028  c-0.001,0-0.003,0.001-0.004,0.001s-0.001,0-0.002,0l-0.375,0.031c-0.014,0.001-0.024,0.01-0.038,0.011  c-0.015,0.002-0.028-0.004-0.043-0.001l-0.375,0.062c-0.011,0.002-0.019,0.009-0.028,0.011c-0.011,0.002-0.021-0.002-0.032,0.001  l-0.406,0.094l-0.406,0.094c-0.004,0.001-0.006,0.004-0.01,0.005c-0.003,0-0.005-0.001-0.008,0l-0.375,0.094  c-0.013,0.003-0.022,0.013-0.035,0.017s-0.026,0.001-0.039,0.005l-0.375,0.125c-0.007,0.002-0.012,0.008-0.019,0.011  c-0.008,0.003-0.017,0.001-0.024,0.004l-0.406,0.156l-0.406,0.156c-0.01,0.004-0.017,0.013-0.026,0.017s-0.02,0.003-0.028,0.007  l-0.331,0.15l-0.358,0.149c-0.017,0.007-0.027,0.021-0.043,0.029c-0.017,0.008-0.035,0.007-0.051,0.016l-0.344,0.188  c-0.004,0.002-0.006,0.006-0.01,0.009c-0.005,0.002-0.011,0.002-0.016,0.005l-0.375,0.219c-0.006,0.004-0.01,0.01-0.016,0.014  c-0.006,0.003-0.012,0.003-0.018,0.007l-0.344,0.219l-0.344,0.219c-0.003,0.002-0.005,0.006-0.008,0.008s-0.007,0.002-0.01,0.004  l-0.375,0.25c-0.014,0.01-0.021,0.024-0.034,0.034c-0.014,0.011-0.03,0.013-0.044,0.023l-0.316,0.259l-0.28,0.196  c-0.019,0.013-0.026,0.032-0.044,0.046s-0.039,0.018-0.056,0.033l-0.344,0.312c-0.001,0-0.001,0.001-0.001,0.002l-0.308,0.276  c-0.007,0.006-0.009,0.015-0.016,0.021c-0.007,0.006-0.016,0.008-0.022,0.015l-0.312,0.312c-0.007,0.007-0.009,0.016-0.015,0.022  c-0.007,0.007-0.016,0.009-0.021,0.016l-0.281,0.312l-0.281,0.312c-0.001,0.001-0.001,0.003-0.002,0.004  c-0.001,0-0.001,0-0.002,0.001l-0.25,0.281c-0.006,0.006-0.007,0.015-0.012,0.021c-0.007,0.008-0.017,0.011-0.022,0.019l-0.25,0.312  c-0.004,0.005-0.005,0.012-0.009,0.017c-0.003,0.003-0.007,0.005-0.01,0.009l-0.168,0.224l-0.001,0.001l-0.25,0.312  c-0.01,0.013-0.012,0.027-0.021,0.04c-0.009,0.012-0.022,0.018-0.03,0.03l-0.188,0.281c-0.005,0.007-0.005,0.016-0.009,0.022  c-0.005,0.007-0.013,0.011-0.017,0.018l-0.188,0.312l-0.188,0.312c-0.003,0.005-0.003,0.012-0.006,0.017s-0.008,0.008-0.011,0.013  l-0.156,0.281c-0.004,0.007-0.003,0.014-0.007,0.021c-0.003,0.007-0.01,0.011-0.014,0.018L44.73,17.92  c-0.007,0.014-0.005,0.027-0.011,0.041c-0.006,0.013-0.018,0.021-0.023,0.035l-0.118,0.295l-0.145,0.318  c-0.003,0.008-0.002,0.016-0.005,0.022c-0.004,0.008-0.011,0.013-0.014,0.021l-0.125,0.312c-0.008,0.019-0.004,0.038-0.011,0.058  c-0.006,0.019-0.021,0.031-0.025,0.051l-0.089,0.326l-0.092,0.306l-0.115,0.346c-0.009,0.025-0.003,0.051-0.01,0.077  s-0.023,0.048-0.028,0.075l-0.062,0.375c-0.002,0.015,0.003,0.027,0.001,0.041c-0.001,0.015-0.01,0.025-0.011,0.04l-0.024,0.294  l-0.074,0.297c-0.007,0.027,0.001,0.053-0.004,0.08s-0.021,0.051-0.022,0.079l-0.028,0.335l-0.058,0.377  c-0.002,0.015,0.004,0.027,0.002,0.041c-0.002,0.015-0.01,0.025-0.011,0.04l-0.031,0.438c-0.001,0.012,0.005,0.022,0.005,0.035  c-0.001,0.013-0.008,0.023-0.008,0.036v0.406v0.438v0.938c0,0.005,0.003,0.01,0.003,0.015c0,0.006-0.003,0.011-0.003,0.017l0.031,1  c0,0.011,0.007,0.02,0.007,0.03c0.001,0.011-0.004,0.02-0.003,0.029l0.094,1.031c0,0.003,0.002,0.006,0.003,0.009  c0,0.003-0.001,0.005-0.001,0.008l0.123,1.135l0.029,0.504l0.029,0.498v0.506v0.469v0.39l-0.021,0.236l-0.022,0.1l-0.037,0.05  c-0.006,0.008-0.006,0.017-0.012,0.024s-0.015,0.012-0.021,0.021l-0.008,0.012l-0.006,0.006l-0.066,0.05  c-0.02,0.015-0.029,0.037-0.047,0.053c-0.019,0.017-0.043,0.022-0.061,0.04l0,0l-0.07,0.028c-0.026,0.011-0.043,0.032-0.067,0.044  c-0.024,0.013-0.052,0.013-0.076,0.027l-0.07,0.042l-0.088,0.013c-0.032,0.005-0.057,0.023-0.088,0.031  c-0.029,0.007-0.058,0.001-0.087,0.011l-0.188,0.062l-0.032,0.011H42.75c-0.05,0-0.094,0.021-0.142,0.028  c-0.045,0.006-0.088-0.002-0.133,0.01l-0.117,0.033l-0.333,0.022h-0.505l-0.473-0.026l-0.587-0.088c-0.002,0-0.005,0.001-0.007,0  c-0.003,0-0.004-0.002-0.007-0.002l-0.688-0.094c-0.002,0-0.003,0.001-0.005,0h-0.001l-0.645-0.084l-0.715-0.2  c-0.02-0.006-0.04,0-0.06-0.004c-0.021-0.005-0.036-0.019-0.058-0.021l-0.748-0.115l-0.817-0.233c-0.005-0.001-0.009,0-0.014-0.001  c-0.003-0.001-0.006-0.004-0.01-0.005l-2.465-0.639l-15.35-6.196c-0.021-0.009-0.043-0.005-0.063-0.012  c-0.022-0.007-0.038-0.023-0.061-0.029c-0.046-0.012-0.091-0.002-0.138-0.007c-0.064-0.007-0.126-0.016-0.19-0.01  c-0.067,0.006-0.13,0.022-0.194,0.041c-0.059,0.017-0.114,0.033-0.169,0.06c-0.061,0.03-0.111,0.069-0.164,0.11  c-0.049,0.038-0.096,0.074-0.138,0.121c-0.045,0.051-0.077,0.108-0.111,0.169c-0.022,0.039-0.056,0.067-0.073,0.11  c-0.009,0.021-0.005,0.043-0.012,0.064c-0.008,0.021-0.023,0.037-0.029,0.06l-0.25,0.969c-0.001,0.002,0,0.004,0,0.007l-0.001,0.001  l-0.312,1.25c0,0.001,0,0.002,0,0.003c-0.001,0.001-0.002,0.003-0.002,0.004l-0.25,1.031c-0.004,0.016,0.001,0.03-0.002,0.047  s-0.015,0.029-0.017,0.047l-0.053,0.366l-0.229,0.772c-0.004,0.015,0,0.028-0.004,0.043c-0.004,0.014-0.014,0.024-0.017,0.039  l-0.188,0.906c0,0.001,0,0.002,0,0.004c0,0.001-0.001,0.001-0.001,0.002l-0.183,0.913l-0.219,0.969  c-0.003,0.011,0.001,0.021-0.001,0.032s-0.009,0.019-0.011,0.029l-0.156,0.969c0,0,0,0,0,0.001l-0.154,0.895  c-0.002,0.011,0.002,0.02,0.001,0.03c-0.002,0.011-0.009,0.019-0.01,0.029l-0.094,0.844v0.001l-0.092,0.735  c-0.002,0.017,0.005,0.031,0.004,0.047c-0.002,0.017-0.011,0.03-0.012,0.047l-0.03,0.988l-0.088,0.735  c-0.003,0.021,0.006,0.04,0.005,0.061s-0.012,0.038-0.012,0.059v0.656v0.531c0,0.021,0.011,0.04,0.013,0.062  c0.001,0.021-0.008,0.041-0.005,0.062l0.023,0.188v0.188c0,0.048,0.021,0.088,0.027,0.134c0.006,0.048-0.003,0.094,0.011,0.141  l0.062,0.219c0.003,0.009,0.009,0.016,0.012,0.024c0.002,0.006,0,0.012,0.002,0.018l0.051,0.152l0.123,0.431  c0.003,0.009,0.009,0.016,0.012,0.024c0.002,0.006,0,0.012,0.002,0.018l0.156,0.469c0.005,0.016,0.017,0.027,0.022,0.042  c0.004,0.012,0.002,0.023,0.007,0.035l0.178,0.414c0,0.001,0,0.001,0,0.001l0.125,0.312c0.006,0.016,0.019,0.027,0.025,0.043  c0.005,0.011,0.003,0.022,0.009,0.033l0.111,0.223l0.142,0.34c0.012,0.028,0.032,0.05,0.047,0.076  c0.009,0.018,0.009,0.037,0.019,0.054l0.188,0.312c0.016,0.026,0.037,0.045,0.055,0.068c0.01,0.014,0.012,0.029,0.021,0.042  l0.125,0.156l0.125,0.156c0,0,0.001,0,0.001,0.001l0.074,0.099c0.021,0.027,0.053,0.038,0.075,0.062  c0.035,0.039,0.058,0.085,0.1,0.119l0.156,0.125l0.156,0.125l0.156,0.125l0.156,0.125c0.024,0.02,0.054,0.027,0.08,0.044  c0.019,0.013,0.029,0.031,0.049,0.043l0.219,0.125c0.045,0.026,0.093,0.039,0.14,0.058c0.015,0.006,0.025,0.018,0.04,0.022  l0.188,0.062c0.008,0.003,0.016,0.001,0.022,0.004c0.008,0.002,0.013,0.008,0.02,0.01l0.219,0.062l0.219,0.062  c0.034,0.01,0.068,0.008,0.103,0.015c0.017,0.003,0.03,0.014,0.048,0.016l0.25,0.031l0.25,0.031  c0.042,0.005,0.083,0.008,0.124,0.008l0,0h0.25h0.281h0.001c0.063,0,0.13-0.006,0.195-0.02l0.312-0.062l0.312-0.062  c0.009-0.002,0.015-0.008,0.023-0.01c0.015-0.004,0.028-0.002,0.043-0.006l0.344-0.094c0.009-0.002,0.015-0.009,0.023-0.012  c0.01-0.003,0.021-0.002,0.03-0.005l0.375-0.125c0.004-0.001,0.007-0.005,0.011-0.006c0.005-0.002,0.01-0.001,0.015-0.003  l0.344-0.125c0.005-0.002,0.008-0.006,0.013-0.008s0.011-0.001,0.017-0.003l0.466-0.187l0.405-0.145l0.402-0.144l0.362-0.111  l0.391-0.084c0.001,0,0.003-0.001,0.004-0.002c0.004-0.001,0.007,0,0.011-0.001l0.406-0.094c0.003-0.001,0.005-0.003,0.008-0.004  c0.004-0.001,0.007,0,0.01-0.001l0.29-0.072l0.352-0.025c0.001,0,0.001,0,0.002-0.001c0.003,0,0.007,0,0.01,0l0.328-0.027h0.37H26.5  h0.367l0.368,0.028l0.341,0.026l0.37,0.079l0.438,0.094c0.027,0.006,0.054,0.005,0.081,0.009c0.011,0.001,0.019,0.008,0.029,0.009  l0.223,0.022l0.066,0.019L29,42.875c0.003,0.001,0.006,0.001,0.008,0.002s0.003,0.002,0.005,0.003l0.219,0.094  c0.007,0.003,0.014,0.002,0.021,0.004c0.008,0.004,0.014,0.011,0.021,0.014l0.158,0.06l0.163,0.102  c0.007,0.004,0.015,0.006,0.021,0.01c0.005,0.003,0.008,0.008,0.013,0.011l0.14,0.079l0.122,0.103  c0.012,0.01,0.025,0.013,0.037,0.021c0.01,0.007,0.014,0.017,0.022,0.023l0.15,0.107l0.13,0.13l0.13,0.13l0.107,0.15  c0.015,0.02,0.038,0.027,0.053,0.046c0.021,0.025,0.03,0.057,0.054,0.08l0.13,0.13l0.061,0.084l0.091,0.183  c0.01,0.019,0.024,0.031,0.034,0.05c0.006,0.011,0.006,0.022,0.013,0.033l0.145,0.231l0.067,0.118l0.062,0.187  c0.009,0.026,0.027,0.047,0.038,0.072c0.008,0.02,0.006,0.04,0.016,0.059l0.113,0.227l0.076,0.172l0.041,0.184  c0.005,0.021,0.018,0.036,0.022,0.056c0.005,0.015,0.001,0.029,0.006,0.044l0.094,0.281l0.073,0.22l0.051,0.254l0.115,0.575  l0.058,0.578c0.001,0.009,0.006,0.016,0.007,0.024c0.001,0.008-0.002,0.016-0.001,0.024l0.083,0.554v0.579v0.629l-0.029,0.624  l-0.056,0.639l-0.116,0.608c-0.002,0.008,0.002,0.016,0,0.023c-0.001,0.008-0.007,0.014-0.008,0.022l-0.094,0.656l0,0l-0.107,0.59  l-0.173,0.577l-0.204,0.61c0,0.001-0.001,0.002-0.001,0.003l-0.219,0.625l0,0l-0.193,0.526l-0.257,0.513L30.25,56.13l-0.275,0.441  l-0.178,0.267l-0.11,0.155l-0.189,0.216c-0.015,0.018-0.019,0.039-0.032,0.057c-0.014,0.019-0.034,0.027-0.047,0.047l-0.088,0.133  l-0.156,0.178l-0.162,0.162l-0.068,0.068l-0.052,0.031c-0.007,0.004-0.011,0.012-0.018,0.017c-0.007,0.004-0.016,0.004-0.022,0.009  l-0.188,0.125c-0.012,0.008-0.018,0.021-0.03,0.03s-0.027,0.011-0.04,0.021l-0.041,0.033l-0.018,0.007l-0.137,0.055l-0.152,0.051  l-0.072,0.024c-0.022,0.001-0.043-0.007-0.065-0.004l-0.15,0.021h-0.114h-0.12l-0.252-0.021l-0.341-0.078  c-0.008-0.002-0.015,0.001-0.022-0.001c-0.008-0.001-0.013-0.007-0.021-0.008l-0.821-0.152l-0.462-0.115  c-0.021-0.005-0.04,0.001-0.06-0.003c-0.021-0.004-0.037-0.017-0.059-0.02l-0.475-0.06l-0.465-0.087  c-0.013-0.002-0.023,0.002-0.036,0c-0.014-0.002-0.024-0.01-0.038-0.012l-0.562-0.062c-0.01-0.001-0.019,0.004-0.029,0.003  c-0.009-0.001-0.017-0.007-0.025-0.007l-0.489-0.027l-0.245-0.049c-0.034-0.007-0.067,0.003-0.102,0  c-0.032-0.004-0.061-0.02-0.095-0.02h-0.312h-0.469c-0.026,0-0.049,0.013-0.075,0.016c-0.026,0.002-0.051-0.008-0.077-0.004  l-0.406,0.062c-0.002,0-0.004,0.002-0.006,0.002c-0.002,0.001-0.004,0-0.006,0l-0.363,0.061l-0.406,0.062  c-0.034,0.005-0.061,0.025-0.094,0.034c-0.032,0.009-0.063,0.003-0.096,0.015l-0.344,0.125c-0.005,0.002-0.008,0.006-0.013,0.008  s-0.011,0.001-0.017,0.003l-0.312,0.125l-0.312,0.125c-0.014,0.006-0.022,0.018-0.035,0.023c-0.014,0.006-0.028,0.004-0.041,0.011  l-0.312,0.156c-0.007,0.004-0.011,0.011-0.018,0.014c-0.007,0.004-0.014,0.003-0.021,0.007l-0.281,0.156  c-0.018,0.01-0.027,0.026-0.044,0.037s-0.035,0.012-0.052,0.023l-0.198,0.142l-0.463,0.309l-0.424,0.272  c-0.009,0.006-0.013,0.015-0.021,0.021c-0.008,0.006-0.018,0.006-0.025,0.012l-0.344,0.25c-0.006,0.004-0.009,0.012-0.015,0.016  c-0.007,0.006-0.016,0.006-0.022,0.012l-0.041,0.033l-0.018,0.007c-0.001,0-0.001,0.001-0.002,0.001  c-0.055,0.022-0.1,0.066-0.15,0.099c-0.062,0.039-0.131,0.07-0.182,0.121c-0.001,0-0.002,0.001-0.002,0.001l-0.125,0.125  c-0.014,0.014-0.018,0.031-0.03,0.045c-0.013,0.015-0.031,0.021-0.044,0.037l-0.094,0.117l-0.082,0.082  c-0.029,0.029-0.042,0.068-0.067,0.101c-0.025,0.033-0.061,0.055-0.083,0.092l-0.058,0.096l-0.085,0.106  c-0.015,0.019-0.019,0.042-0.031,0.062c-0.014,0.019-0.033,0.029-0.045,0.049l-0.094,0.156l-0.094,0.156  c-0.007,0.012-0.007,0.024-0.013,0.036c-0.007,0.013-0.019,0.02-0.024,0.031l-0.094,0.188c-0.003,0.006-0.002,0.013-0.005,0.019  s-0.008,0.009-0.011,0.015l-0.156,0.344c-0.016,0.034-0.013,0.07-0.024,0.104c-0.012,0.035-0.035,0.062-0.043,0.1l-0.085,0.398  l-0.118,0.412c-0.004,0.014,0,0.027-0.003,0.042c-0.004,0.013-0.013,0.022-0.016,0.036l-0.094,0.469  c-0.003,0.013,0.002,0.024,0,0.037s-0.01,0.022-0.012,0.035l-0.062,0.5c-0.002,0.012,0.004,0.022,0.003,0.034  s-0.008,0.021-0.009,0.034l-0.031,0.562c-0.001,0.01,0.004,0.018,0.004,0.026c0,0.011-0.006,0.02-0.006,0.029v0.594  c0,0.009,0.005,0.016,0.005,0.024s-0.004,0.017-0.004,0.025l0.031,0.625l0.031,0.625v0.001l0.031,0.682  c0.001,0.024,0.014,0.045,0.017,0.069c0.003,0.021-0.005,0.042-0.001,0.064l0.118,0.65l0.437,3.242  c0.003,0.021,0.015,0.036,0.019,0.056c0.003,0.018-0.002,0.033,0.002,0.051l1.312,5.312c0,0.002,0.002,0.003,0.002,0.004  s0,0.002,0,0.003l1.187,4.651c0,0.002,0,0.003,0,0.004l0.531,2.094c0.001,0.003,0.003,0.005,0.004,0.008  c0,0.002-0.001,0.004,0,0.006l0.434,1.61l0.311,1.273c0,0,0,0.001,0.001,0.001l0.28,1.154v0.001l0.312,1.307  c0.008,0.031,0.026,0.056,0.037,0.086c0.016,0.049,0.035,0.093,0.059,0.139c0.034,0.065,0.074,0.124,0.121,0.18  c0.031,0.036,0.06,0.071,0.095,0.103c0.059,0.053,0.124,0.093,0.192,0.13c0.037,0.021,0.069,0.044,0.109,0.06  c0.113,0.044,0.233,0.072,0.358,0.072c0,0,0,0,0.001,0l0,0h60.469l0,0c0.001,0,0.001,0,0.001,0c0.125,0,0.245-0.028,0.357-0.072  c0.04-0.016,0.073-0.039,0.11-0.06c0.068-0.037,0.133-0.077,0.191-0.129c0.035-0.032,0.064-0.066,0.095-0.103  c0.047-0.056,0.087-0.114,0.121-0.18c0.023-0.045,0.043-0.089,0.06-0.138c0.01-0.029,0.028-0.053,0.036-0.083l1.118-4.599  l0.247-0.863c0.005-0.017,0-0.032,0.004-0.048c0.004-0.018,0.015-0.03,0.018-0.048l0.188-1.031c0-0.001,0-0.001,0-0.002  s0.001-0.002,0.001-0.003l0.188-1.062c0-0.001,0-0.001,0-0.002s0.001-0.002,0.001-0.003l0.188-1.094  c0.001-0.004-0.001-0.007,0-0.011c0-0.005,0.003-0.008,0.004-0.013l0.156-1.062l0.156-1.062c0.001-0.009-0.003-0.017-0.001-0.026  c0.001-0.01,0.007-0.018,0.008-0.028l0.094-1.031c0-0.004-0.002-0.008-0.001-0.012c0-0.005,0.003-0.008,0.003-0.013l0.062-0.935  c0-0.001,0-0.001,0-0.001l0.094-1.375c0-0.007-0.003-0.013-0.003-0.019c0.001-0.007,0.005-0.013,0.005-0.02l0.031-1.031  c0-0.006-0.003-0.011-0.003-0.017c0-0.005,0.003-0.009,0.003-0.014v-0.438v-0.406c0-0.018-0.009-0.032-0.01-0.049  C85.396,72.395,85.403,72.379,85.401,72.361z"/><text x="0" y="115" fill="#000000" font-size="5px" font-weight="bold" font-family="'Helvetica Neue', Helvetica, Arial-Unicode, Arial, Sans-serif">Created by ilCactusBlu</text><text x="0" y="120" fill="#000000" font-size="5px" font-weight="bold" font-family="'Helvetica Neue', Helvetica, Arial-Unicode, Arial, Sans-serif">from the Noun Project</text></svg>