<?xml version="1.0" standalone="no"?>
<!DOCTYPE svg PUBLIC "-//W3C//DTD SVG 20010904//EN"
 "http://www.w3.org/TR/2001/REC-SVG-20010904/DTD/svg10.dtd">
<svg version="1.0" xmlns="http://www.w3.org/2000/svg"
 width="1280.000000pt" height="1280.000000pt" viewBox="0 0 1280.000000 1280.000000" opacity="0.2"
 preserveAspectRatio="xMidYMid meet">
<metadata>
Created by potrace 1.15, written by Peter Selinger 2001-2017
</metadata>
<g transform="translate(0.000000,1280.000000) scale(0.100000,-0.100000)"
fill="rgba(243,234,218,1)" stroke="none">
<path d="M7785 12229 c-456 -51 -770 -215 -901 -472 -47 -93 -64 -165 -64
-277 0 -115 20 -202 65 -295 48 -95 102 -156 199 -220 44 -29 94 -71 110 -91
100 -128 103 -317 8 -456 -114 -166 -338 -275 -657 -320 -138 -20 -815 -16
-1080 5 -655 54 -1394 148 -2150 275 -159 27 -291 48 -293 47 -1 -1 9 -56 24
-121 115 -532 174 -1004 174 -1393 0 -357 -27 -485 -117 -573 -54 -53 -146
-105 -238 -135 -73 -25 -94 -27 -240 -27 -142 -1 -168 2 -230 22 -85 29 -144
61 -211 118 -83 70 -169 108 -325 141 -116 24 -380 24 -499 -1 -452 -94 -722
-358 -795 -775 -31 -173 -14 -467 36 -651 22 -83 102 -256 143 -310 53 -69
142 -154 213 -201 216 -142 533 -178 808 -92 130 41 191 77 292 175 102 98
157 129 275 154 304 65 613 -131 722 -456 135 -404 160 -1625 71 -3395 -8
-159 -18 -333 -21 -386 l-7 -95 234 28 c1151 138 2187 216 2732 205 270 -5
323 -14 417 -71 290 -177 168 -651 -222 -862 -97 -52 -186 -141 -225 -224 -43
-92 -57 -160 -56 -275 3 -220 93 -417 269 -586 240 -230 604 -338 1040 -309
419 28 760 167 1005 410 190 187 292 410 292 635 -1 227 -93 398 -288 534 -44
30 -103 79 -131 108 -224 226 -98 540 239 599 205 36 1092 42 2012 14 362 -11
900 -29 990 -33 l60 -2 32 175 c79 429 162 1006 205 1415 30 294 33 829 6 938
-33 127 -88 214 -172 272 -82 56 -161 77 -291 77 -172 0 -337 -42 -522 -133
-84 -41 -117 -64 -185 -132 -198 -195 -411 -308 -662 -352 -114 -19 -328 -19
-442 0 -534 93 -930 486 -1056 1046 -21 94 -23 128 -23 364 0 228 3 275 23
380 85 449 295 761 643 956 115 66 299 130 439 154 356 61 777 -1 1035 -152
105 -61 165 -123 212 -219 118 -243 387 -367 670 -308 161 33 281 111 332 216
91 189 108 818 46 1628 -25 326 -126 1224 -138 1237 -2 2 -75 -8 -162 -22
-572 -89 -1051 -134 -1517 -142 -370 -6 -578 5 -682 38 -210 64 -355 310 -316
536 19 118 58 185 166 290 107 105 152 183 180 313 23 108 15 319 -16 415
-108 339 -378 548 -817 631 -103 19 -537 28 -668 13z"/>
</g>
</svg>
