<?xml version="1.0" standalone="no"?>
<!DOCTYPE svg PUBLIC "-//W3C//DTD SVG 20010904//EN"
 "http://www.w3.org/TR/2001/REC-SVG-20010904/DTD/svg10.dtd">
<svg version="1.0" xmlns="http://www.w3.org/2000/svg"
 width="1280.000000pt" height="1280.000000pt" viewBox="0 0 1280.000000 1280.000000" opacity="0.1"
 preserveAspectRatio="xMidYMid meet">
<metadata>
Created by potrace 1.15, written by Peter Selinger 2001-2017
</metadata>
<g transform="translate(0.000000,1280.000000) scale(0.100000,-0.100000)"
fill="rgba(243,234,218,1)" stroke="none">
<path d="M7340 10677 c-84 -19 -145 -53 -194 -108 -59 -65 -87 -141 -93 -249
-14 -245 118 -494 347 -654 119 -84 183 -193 217 -371 31 -163 -2 -399 -81
-569 -175 -381 -541 -586 -999 -562 -491 25 -875 273 -1073 690 -73 154 -97
262 -98 441 -1 176 11 233 78 370 45 92 76 128 223 267 120 113 177 260 153
396 -29 166 -141 282 -307 317 -127 27 -482 38 -978 31 -595 -8 -1659 -47
-1673 -61 -3 -3 7 -121 22 -262 132 -1274 161 -2324 76 -2761 -15 -83 -44
-138 -102 -195 -137 -137 -359 -174 -533 -88 -122 61 -196 147 -266 312 -36
87 -52 113 -104 164 -269 266 -814 334 -1202 150 -483 -228 -743 -772 -743
-1555 0 -486 143 -905 407 -1190 133 -144 328 -262 513 -311 119 -32 319 -32
437 -1 222 60 379 170 577 406 83 98 248 191 421 238 81 22 219 26 286 8 133
-35 225 -143 269 -316 84 -326 24 -1238 -171 -2621 -13 -89 -20 -165 -17 -168
17 -17 843 -177 1238 -239 1023 -161 1662 -185 2005 -76 198 64 350 195 415
359 69 176 31 388 -91 499 -125 114 -151 145 -189 224 -62 127 -84 241 -77
401 8 205 62 345 185 478 146 158 332 248 612 296 119 21 463 23 560 5 173
-34 332 -100 446 -185 238 -179 369 -488 351 -825 -11 -210 -63 -356 -167
-469 -131 -144 -179 -338 -135 -547 31 -147 133 -294 236 -343 169 -79 722
-78 1329 3 260 34 750 119 750 129 0 1 -11 144 -25 316 -25 322 -46 637 -67
1024 -7 121 -12 420 -12 665 -1 383 2 461 17 560 10 63 27 134 37 157 25 56
153 184 213 213 75 35 125 37 191 7 72 -33 134 -97 226 -233 99 -147 150 -206
225 -259 181 -129 410 -158 685 -87 233 61 389 150 550 311 324 327 500 847
469 1388 -23 408 -141 734 -343 950 -175 187 -347 261 -661 284 -175 12 -322
2 -428 -31 -117 -36 -180 -84 -387 -286 -208 -204 -285 -262 -388 -294 -241
-75 -440 65 -498 350 -13 68 -15 113 -10 230 3 80 35 795 71 1589 36 794 65
1445 63 1446 -5 5 -710 104 -958 134 -285 35 -655 74 -925 96 -256 22 -831 29
-905 12z"/>
</g>
</svg>
